<svg width="242" height="104" viewBox="0 0 242 104" fill="none" xmlns="http://www.w3.org/2000/svg">
<path d="M81.426 82.133H76.848L73.107 72.239H58.144L54.625 82.133H50.025L63.559 46.839H67.841L81.426 82.133ZM71.754 68.523L66.217 53.485C65.9705 52.7143 65.7895 51.9241 65.676 51.123H65.576C65.4602 51.926 65.2707 52.7167 65.01 53.485L59.526 68.523H71.754Z" fill="white"/>
<path d="M86.6201 82.133V46.839H96.3661C108.803 46.839 115.022 52.5723 115.022 64.039C115.022 69.4863 113.295 73.863 109.841 77.169C106.387 80.475 101.764 82.128 95.972 82.128L86.6201 82.133ZM90.755 50.581V78.392H96.022C100.649 78.392 104.249 77.1533 106.822 74.676C109.395 72.1986 110.683 68.6873 110.686 64.142C110.686 55.102 105.879 50.582 96.264 50.582L90.755 50.581Z" fill="white"/>
<path d="M163.801 46.839L153.833 82.132H148.984L141.724 56.339C141.4 55.1666 141.21 53.9612 141.158 52.746H141.058C140.962 53.9456 140.748 55.1327 140.418 56.29L133.109 82.132H128.309L117.979 46.839H122.532L130.039 73.912C130.355 75.0705 130.552 76.2578 130.629 77.456H130.752C130.903 76.2548 131.158 75.069 131.515 73.912L139.315 46.839H143.279L150.761 74.109C151.05 75.1905 151.247 76.2944 151.351 77.409H151.451C151.572 76.2584 151.794 75.1207 152.115 74.009L159.326 46.838L163.801 46.839Z" fill="white"/>
<path d="M173.179 82.133H169.044V46.839H173.179V82.133Z" fill="white"/>
<path d="M209.776 82.133H205.198L201.457 72.239H186.493L182.974 82.133H178.374L191.907 46.839H196.189L209.776 82.133ZM200.104 68.523L194.566 53.485C194.32 52.7143 194.139 51.9242 194.025 51.123H193.925C193.81 51.9261 193.62 52.7168 193.359 53.485L187.871 68.523H200.104Z" fill="white"/>
<path d="M241.5 82.133H237.365V66.039H219.103V82.139H214.969V46.839H219.103V62.32H237.365V46.839H241.5V82.133Z" fill="white"/>
<path d="M36.486 57.927C36.1819 57.1581 35.7415 56.4504 35.186 55.838H21.495L23.795 59.068L35.653 59.029C35.847 58.717 36.306 58.251 36.486 57.927Z" fill="#E66189"/>
<path d="M31.337 64.2679C31.9936 63.5537 32.6093 62.8028 33.181 62.0189L25.981 62.1449L28.281 65.3749L30.862 64.9189C30.902 64.8699 31.291 64.3159 31.337 64.2679Z" fill="#CF1321"/>
<path d="M30.101 47.7419C32.965 50.7929 32.274 50.972 32.274 50.972H18.714L16.414 47.7419H30.101Z" fill="#E66189"/>
<path d="M43.227 47.7419L40.909 50.972H38.147C38.1041 49.8669 37.8826 48.7761 37.491 47.7419H43.227Z" fill="#E66189"/>
<path d="M22.32 40.437C23.641 41.596 24.783 42.628 25.78 43.537H13.413L11.197 40.437H22.32Z" fill="#E66189"/>
<path d="M48.478 40.437L46.254 43.537H35.114C34.2686 42.4275 33.332 41.3906 32.314 40.437H48.478Z" fill="#E66189"/>
<path d="M13.711 33.124C15.0403 34.224 16.2763 35.2573 17.419 36.224H8.19701L5.98102 33.124H13.711Z" fill="#E66189"/>
<path d="M53.737 33.124L51.504 36.224H26.957C25.3976 35.1333 23.9643 34.1 22.657 33.124H53.737Z" fill="#E66189"/>
<path d="M5.742 25.4359C6.58995 26.7009 7.57308 27.8697 8.674 28.9219H2.989L0.5 25.4359H5.742Z" fill="#E66189"/>
<path d="M59.261 25.4359L56.755 28.9219H17.335C15.735 27.5749 14.462 26.4069 13.457 25.4359H59.261Z" fill="#E66189"/>
<path d="M31.09 80.7089C30.019 79.0529 26.538 76.1659 25.234 74.4699C20.134 67.8369 26.774 61.2889 29.913 58.5919C34.096 54.9979 32.274 50.9709 32.274 50.9709H38.148C39.461 56.6309 33.272 62.4309 30.681 65.6229C26.042 71.3349 32.723 75.7499 35.318 77.6679C40.438 81.4519 33.736 88.8809 33.581 89.0549C33.581 89.0549 48.887 102.694 48.887 103.129H11.887L27.187 89.0549C31.168 85.5929 32.34 82.6419 31.09 80.7089Z" fill="white"/>
<path d="M13.455 25.4359H5.742C4.95107 24.2484 4.33384 22.954 3.909 21.5919H10.003C11.022 22.9856 12.1785 24.2734 13.455 25.4359V25.4359Z" fill="white"/>
<path d="M22.661 33.1259H13.711C12.543 32.1629 11.316 31.1489 10.004 30.0829C9.54011 29.7209 9.09612 29.334 8.67401 28.924H17.334C18.817 30.166 20.585 31.5729 22.661 33.1259Z" fill="white"/>
<path d="M32.318 40.4379H22.318C20.895 39.1939 19.267 37.7959 17.418 36.2269H26.955C27.415 36.5429 27.876 36.8659 28.355 37.1899C29.7641 38.1605 31.0897 39.2469 32.318 40.4379V40.4379Z" fill="white"/>
<path d="M37.491 47.742H30.101C29.129 46.711 27.74 45.342 25.78 43.542H35.113C36.1085 44.8171 36.9098 46.2324 37.491 47.742V47.742Z" fill="white"/>
<path d="M42.358 14.2679C42.358 14.2679 43.227 19.3459 39.529 21.9569C39.529 21.9569 34.597 20.7969 32.71 14.2679H42.358Z" fill="white"/>
<path d="M32.54 4.33297H11.7C11.7 4.33297 16.9 -0.679033 25.781 1.35797C28.1216 2.13748 30.3843 3.13346 32.54 4.33297V4.33297Z" fill="white"/>
<path d="M40.389 10.93H30.889C29.934 9.77115 28.8992 8.68048 27.792 7.66602H37.392C38.5251 8.62275 39.5322 9.71954 40.389 10.93V10.93Z" fill="white"/>
<path d="M3.39801 14.271H9.362C8.85507 15.4869 8.61959 16.7987 8.672 18.115H3.117C3.09835 16.8279 3.19238 15.5417 3.39801 14.271Z" fill="white"/>
<path d="M16.413 7.66602C14.6203 8.43985 12.9913 9.54791 11.613 10.931H4.32703C4.82337 9.60565 5.71625 8.46554 6.88403 7.66602H16.413Z" fill="white"/>
<path d="M57.41 98.92C56.4814 99.4394 55.4328 99.7059 54.369 99.693C53.7861 99.7165 53.2048 99.617 52.6629 99.4009C52.1211 99.1849 51.6308 98.8571 51.224 98.439C50.8152 97.9919 50.4988 97.4684 50.2928 96.8987C50.0869 96.3289 49.9955 95.7241 50.024 95.119C50.001 94.4818 50.1072 93.8466 50.3363 93.2516C50.5654 92.6566 50.9126 92.1142 51.357 91.657C51.7967 91.2107 52.3239 90.8601 52.9056 90.6273C53.4872 90.3944 54.1108 90.2844 54.737 90.304C55.5924 90.2771 56.4431 90.4414 57.227 90.785V91.968C56.4424 91.4886 55.5362 91.2456 54.617 91.268C54.1492 91.2537 53.6838 91.3402 53.2524 91.5217C52.821 91.7033 52.4338 91.9755 52.117 92.32C51.4978 93.0866 51.1543 94.039 51.1416 95.0244C51.1289 96.0097 51.4478 96.9707 52.047 97.753C52.3617 98.0843 52.7442 98.3439 53.1684 98.5139C53.5926 98.6839 54.0485 98.7603 54.505 98.738C55.1452 98.7542 55.7792 98.6084 56.348 98.314V95.768H54.356V94.805H57.41V98.92Z" fill="#E66189"/>
<path d="M60.419 99.5399H59.38V89.9399H60.419V99.5399Z" fill="#E66189"/>
<path d="M65.234 99.6939C64.8081 99.7141 64.3828 99.6435 63.9863 99.4868C63.5898 99.33 63.2311 99.0908 62.934 98.7849C62.3418 98.1256 62.0334 97.2593 62.076 96.374C62.0486 95.9105 62.1134 95.4462 62.2667 95.008C62.42 94.5697 62.6587 94.1663 62.969 93.821C63.286 93.5093 63.6643 93.2668 64.0798 93.1088C64.4953 92.9508 64.939 92.8807 65.383 92.903C65.8026 92.8795 66.2224 92.9472 66.6133 93.1014C67.0043 93.2555 67.3573 93.4925 67.648 93.796C68.2242 94.4882 68.5152 95.3739 68.462 96.273C68.5066 97.1845 68.1917 98.0771 67.585 98.7589C67.2819 99.0727 66.9155 99.3183 66.5102 99.4796C66.1048 99.6408 65.6698 99.7138 65.234 99.6939ZM65.31 93.777C65.0117 93.7633 64.7142 93.8175 64.4398 93.9355C64.1654 94.0534 63.9214 94.2321 63.726 94.458C63.311 94.9929 63.1039 95.66 63.143 96.3359C63.1056 96.9942 63.3157 97.6427 63.732 98.154C63.9292 98.3748 64.173 98.549 64.4457 98.6642C64.7184 98.7794 65.0133 98.8326 65.309 98.82C65.5999 98.8373 65.8909 98.7876 66.1595 98.6745C66.4281 98.5615 66.6671 98.3881 66.858 98.1679C67.2509 97.6321 67.4428 96.9751 67.4 96.312C67.443 95.6429 67.2514 94.9799 66.858 94.437C66.669 94.215 66.4311 94.0397 66.1631 93.9249C65.8951 93.81 65.6042 93.7587 65.313 93.775L65.31 93.777Z" fill="#E66189"/>
<path d="M71.188 98.6H71.163V99.538H70.124V89.938H71.163V94.195H71.188C71.4046 93.7922 71.7293 93.4579 72.1255 93.2297C72.5218 93.0014 72.9739 92.8883 73.431 92.903C73.8021 92.8854 74.1722 92.955 74.5115 93.1062C74.8508 93.2575 75.15 93.4862 75.385 93.774C75.8847 94.4462 76.1343 95.2716 76.091 96.108C76.1385 97.0427 75.8584 97.9647 75.299 98.715C75.0397 99.0365 74.7085 99.2926 74.3321 99.4626C73.9557 99.6327 73.5446 99.7119 73.132 99.694C72.7385 99.7087 72.3487 99.6143 72.0056 99.4212C71.6626 99.2281 71.3795 98.9439 71.188 98.6ZM71.163 95.984V96.889C71.1516 97.395 71.3394 97.8852 71.686 98.254C71.8722 98.4445 72.0971 98.5928 72.3456 98.689C72.594 98.7853 72.8601 98.8272 73.1261 98.8119C73.3921 98.7967 73.6517 98.7246 73.8875 98.6006C74.1232 98.4766 74.3297 98.3035 74.493 98.093C74.8819 97.4983 75.0695 96.7944 75.028 96.085C75.0643 95.4774 74.8875 94.8761 74.528 94.385C74.3656 94.1838 74.1584 94.0234 73.9229 93.9166C73.6875 93.8098 73.4303 93.7596 73.172 93.77C72.8974 93.7597 72.624 93.8111 72.3719 93.9203C72.1198 94.0294 71.8953 94.1937 71.715 94.401C71.3393 94.8421 71.1427 95.408 71.164 95.987L71.163 95.984Z" fill="#E66189"/>
<path d="M82.225 99.54H81.186V98.527H81.1609C80.9712 98.8899 80.6828 99.1919 80.329 99.3982C79.9752 99.6045 79.5703 99.7066 79.1609 99.693C78.6079 99.7251 78.064 99.5411 77.6439 99.18C77.461 99.005 77.3175 98.793 77.223 98.5581C77.1285 98.3232 77.0852 98.0709 77.096 97.818C77.096 96.606 77.8096 95.9007 79.237 95.702L81.182 95.43C81.182 94.3266 80.7363 93.7753 79.845 93.776C79.0657 93.7756 78.3131 94.0601 77.729 94.576V93.512C78.3882 93.1011 79.1523 92.8899 79.9289 92.904C81.4536 92.904 82.216 93.7106 82.216 95.324L82.225 99.54ZM81.186 96.258L79.621 96.474C79.2351 96.5088 78.8623 96.6312 78.531 96.832C78.3994 96.9413 78.297 97.0816 78.2329 97.2402C78.1689 97.3989 78.1452 97.5709 78.164 97.741C78.1595 97.8873 78.1876 98.0329 78.2462 98.1671C78.3048 98.3013 78.3925 98.4208 78.503 98.517C78.7548 98.7261 79.076 98.8332 79.4029 98.817C79.6422 98.8236 79.8802 98.7786 80.1005 98.6851C80.3209 98.5916 80.5185 98.4517 80.68 98.275C81.0191 97.9007 81.1985 97.4087 81.18 96.904L81.186 96.258Z" fill="#E66189"/>
<path d="M97.55 99.5409H96.492V93.4469C96.492 92.9656 96.5217 92.3763 96.581 91.6789H96.556C96.4897 91.9792 96.3987 92.2736 96.284 92.5589L93.184 99.5399H92.665L89.565 92.6089C89.4466 92.3074 89.3556 91.9958 89.293 91.6779H89.268C89.302 92.0413 89.3187 92.6346 89.318 93.4579V99.5399H88.292V90.4559H89.699L92.486 96.7909C92.6515 97.1437 92.7912 97.508 92.904 97.8809H92.942C93.1233 97.3823 93.269 97.0106 93.379 96.7659L96.223 90.4559H97.553L97.55 99.5409Z" fill="#E66189"/>
<path d="M105.012 96.5559H100.431C100.407 97.1671 100.616 97.7647 101.014 98.2289C101.214 98.4296 101.453 98.5859 101.717 98.6874C101.982 98.7889 102.264 98.8334 102.547 98.8179C103.282 98.8167 103.994 98.5616 104.562 98.0959V99.0719C103.893 99.5144 103.101 99.732 102.3 99.6929C101.897 99.7135 101.495 99.645 101.121 99.4922C100.748 99.3394 100.413 99.1061 100.14 98.8089C99.5784 98.1066 99.2985 97.2203 99.355 96.3229C99.3168 95.4209 99.624 94.5383 100.214 93.8549C100.478 93.5496 100.805 93.3059 101.173 93.1413C101.542 92.9766 101.942 92.8949 102.345 92.9019C102.714 92.8808 103.084 92.9441 103.425 93.0869C103.766 93.2296 104.071 93.4481 104.315 93.7259C104.815 94.3797 105.063 95.1913 105.015 96.0129L105.012 96.5559ZM103.947 95.6759C103.974 95.1724 103.82 94.6758 103.513 94.2759C103.366 94.1083 103.182 93.9763 102.976 93.8897C102.771 93.8031 102.548 93.7642 102.325 93.7759C102.092 93.7721 101.861 93.8168 101.646 93.9072C101.431 93.9976 101.237 94.1317 101.077 94.3009C100.723 94.6786 100.5 95.1611 100.444 95.6759H103.947Z" fill="#E66189"/>
<path d="M112.12 99.54H111.081V98.44H111.052C110.839 98.7886 110.548 99.0826 110.202 99.2985C109.855 99.5144 109.463 99.6463 109.056 99.6835C108.65 99.7207 108.24 99.6623 107.86 99.5128C107.48 99.3634 107.14 99.1272 106.868 98.823C106.348 98.1453 106.089 97.3038 106.136 96.451C106.089 95.522 106.377 94.607 106.947 93.872C107.209 93.5555 107.54 93.3034 107.914 93.1354C108.289 92.9674 108.698 92.8878 109.108 92.903C109.498 92.8776 109.888 92.9629 110.232 93.149C110.576 93.335 110.861 93.6144 111.053 93.955H111.078V89.938H112.117L112.12 99.54ZM111.081 96.607V95.651C111.087 95.4059 111.044 95.162 110.955 94.9336C110.866 94.7051 110.732 94.4966 110.562 94.32C110.393 94.1413 110.188 94.0004 109.961 93.9065C109.734 93.8126 109.49 93.7678 109.244 93.775C108.956 93.7626 108.67 93.8198 108.408 93.9417C108.147 94.0635 107.919 94.2464 107.744 94.475C107.351 95.0375 107.159 95.716 107.199 96.401C107.164 97.0339 107.348 97.6595 107.721 98.172C107.887 98.3823 108.1 98.5507 108.344 98.6634C108.587 98.7761 108.853 98.8301 109.121 98.821C109.388 98.8292 109.653 98.7771 109.897 98.6685C110.141 98.56 110.357 98.3978 110.53 98.194C110.904 97.7516 111.1 97.186 111.081 96.607V96.607Z" fill="#E66189"/>
<path d="M114.757 91.4059C114.669 91.4076 114.582 91.3916 114.5 91.359C114.419 91.3263 114.344 91.2777 114.282 91.2159C114.217 91.1541 114.165 91.0792 114.131 90.9962C114.096 90.9132 114.08 90.8238 114.082 90.7339C114.08 90.645 114.097 90.5565 114.13 90.474C114.163 90.3914 114.212 90.3163 114.275 90.2531C114.338 90.1899 114.412 90.1399 114.494 90.106C114.577 90.0721 114.665 90.0551 114.754 90.0559C114.843 90.0541 114.932 90.0702 115.016 90.1034C115.099 90.1365 115.174 90.186 115.238 90.2489C115.301 90.3117 115.352 90.3864 115.386 90.4687C115.42 90.551 115.438 90.6392 115.438 90.7284C115.438 90.8176 115.42 90.9059 115.386 90.9882C115.352 91.0705 115.301 91.1452 115.238 91.2079C115.175 91.2717 115.1 91.3221 115.018 91.3562C114.935 91.3902 114.846 91.4071 114.757 91.4059V91.4059ZM115.264 99.5399H114.229V93.0529H115.268L115.264 99.5399Z" fill="#E66189"/>
<path d="M121.788 99.2419C121.249 99.5526 120.636 99.7083 120.014 99.6919C119.598 99.7089 119.184 99.6375 118.798 99.4823C118.412 99.3272 118.063 99.0919 117.775 98.7919C117.194 98.1544 116.887 97.3131 116.923 96.4509C116.879 95.5052 117.209 94.58 117.842 93.8759C118.158 93.5497 118.541 93.2944 118.963 93.1268C119.386 92.9593 119.839 92.8833 120.293 92.9039C120.813 92.8932 121.329 93.0016 121.801 93.2209V94.2859C121.352 93.9585 120.811 93.781 120.255 93.7789C119.947 93.7703 119.641 93.8297 119.359 93.953C119.077 94.0762 118.826 94.2603 118.623 94.4919C118.182 95.0134 117.955 95.6821 117.987 96.3639C117.951 97.0184 118.165 97.6621 118.587 98.1639C118.791 98.3838 119.04 98.5567 119.317 98.6705C119.595 98.7843 119.893 98.8363 120.193 98.8229C120.774 98.8191 121.338 98.6205 121.793 98.2589L121.788 99.2419Z" fill="#E66189"/>
<path d="M123.892 91.4059C123.804 91.4076 123.717 91.3916 123.635 91.359C123.554 91.3263 123.479 91.2777 123.417 91.2159C123.352 91.1541 123.3 91.0792 123.266 90.9962C123.231 90.9131 123.215 90.8238 123.217 90.7339C123.215 90.645 123.232 90.5565 123.265 90.474C123.298 90.3914 123.347 90.3163 123.41 90.2531C123.472 90.1899 123.547 90.1399 123.629 90.106C123.712 90.0721 123.8 90.0551 123.889 90.0559C123.978 90.0541 124.067 90.0702 124.151 90.1034C124.234 90.1365 124.309 90.186 124.373 90.2489C124.436 90.3117 124.487 90.3864 124.521 90.4687C124.555 90.551 124.573 90.6392 124.573 90.7284C124.573 90.8176 124.555 90.9059 124.521 90.9882C124.487 91.0705 124.436 91.1452 124.373 91.2079C124.31 91.2718 124.235 91.3222 124.153 91.3562C124.07 91.3903 123.981 91.4072 123.892 91.4059V91.4059ZM124.399 99.5399H123.36V93.0529H124.399V99.5399Z" fill="#E66189"/>
<path d="M131.887 99.54H130.848V95.84C130.848 94.4633 130.346 93.775 129.341 93.775C129.096 93.7698 128.853 93.8197 128.629 93.9212C128.406 94.0226 128.208 94.1729 128.051 94.361C127.703 94.7736 127.521 95.3008 127.541 95.84V99.54H126.502V93.053H127.541V94.13H127.566C127.772 93.7479 128.08 93.4307 128.456 93.2137C128.832 92.9967 129.261 92.8884 129.695 92.901C130.001 92.8821 130.307 92.9344 130.59 93.0536C130.872 93.1727 131.123 93.3556 131.323 93.588C131.735 94.1649 131.934 94.8667 131.887 95.574V99.54Z" fill="#E66189"/>
<path d="M139.055 96.5559H134.475C134.451 97.1671 134.659 97.7648 135.058 98.2289C135.258 98.4296 135.497 98.5859 135.761 98.6874C136.026 98.7889 136.308 98.8334 136.591 98.8179C137.326 98.8166 138.038 98.5616 138.606 98.0959V99.0719C137.937 99.5144 137.145 99.732 136.344 99.6929C135.941 99.7136 135.539 99.6451 135.165 99.4923C134.792 99.3395 134.457 99.1061 134.184 98.8089C133.622 98.1068 133.342 97.2204 133.398 96.3229C133.36 95.4209 133.667 94.5382 134.257 93.8549C134.521 93.5495 134.849 93.3058 135.217 93.1411C135.585 92.9764 135.985 92.8948 136.389 92.9019C136.758 92.8809 137.128 92.9442 137.469 93.0869C137.81 93.2297 138.115 93.4482 138.359 93.7259C138.859 94.3798 139.107 95.1913 139.059 96.0129L139.055 96.5559ZM137.991 95.6759C138.018 95.1724 137.864 94.6759 137.557 94.2759C137.409 94.1083 137.226 93.9763 137.02 93.8898C136.815 93.8032 136.592 93.7642 136.369 93.7759C136.136 93.772 135.905 93.8166 135.69 93.907C135.475 93.9974 135.281 94.1315 135.121 94.3009C134.766 94.6784 134.544 95.161 134.487 95.6759H137.991Z" fill="#E66189"/>
<path d="M202.544 99.1729V97.9189C202.701 98.0543 202.874 98.1692 203.06 98.2609C203.264 98.3638 203.476 98.4498 203.694 98.5179C203.913 98.5869 204.136 98.6407 204.362 98.6789C204.567 98.7153 204.775 98.7344 204.983 98.7359C205.498 98.7732 206.012 98.6457 206.45 98.3719C206.689 98.1699 206.852 97.892 206.91 97.5846C206.969 97.2772 206.921 96.9589 206.773 96.6829C206.656 96.49 206.505 96.3205 206.326 96.1829C206.115 96.0193 205.889 95.8751 205.652 95.7519C205.392 95.6146 205.112 95.4699 204.813 95.3179C204.496 95.1572 204.2 94.9946 203.926 94.8299C203.667 94.6775 203.426 94.4949 203.21 94.2859C203.011 94.092 202.849 93.8632 202.732 93.6109C202.602 93.2965 202.544 92.9573 202.562 92.6177C202.579 92.2781 202.671 91.9465 202.832 91.6469C203.01 91.3438 203.255 91.0849 203.548 90.8899C203.857 90.6853 204.198 90.5352 204.558 90.4459C204.936 90.3494 205.324 90.3006 205.714 90.3009C206.383 90.2597 207.052 90.3701 207.672 90.6239V91.8239C207.057 91.4304 206.336 91.2359 205.607 91.2669C205.372 91.2668 205.137 91.2913 204.907 91.3399C204.688 91.3834 204.478 91.4639 204.286 91.5779C204.108 91.6841 203.956 91.829 203.842 92.0019C203.724 92.1917 203.665 92.4124 203.672 92.6359C203.667 92.8434 203.711 93.0492 203.802 93.2359C203.896 93.415 204.027 93.5727 204.185 93.6989C204.377 93.8536 204.584 93.9893 204.803 94.1039C205.046 94.2372 205.325 94.3809 205.642 94.5349C205.959 94.6889 206.267 94.8579 206.567 95.0419C206.844 95.2084 207.101 95.4064 207.333 95.6319C207.547 95.8387 207.724 96.0805 207.856 96.3469C207.989 96.628 208.055 96.936 208.049 97.2469C208.061 97.6423 207.971 98.0341 207.786 98.3839C207.615 98.6901 207.371 98.9496 207.076 99.1399C206.761 99.3417 206.412 99.4847 206.046 99.5619C205.642 99.65 205.23 99.6936 204.817 99.6919C204.639 99.6899 204.462 99.6782 204.285 99.6569C204.074 99.6342 203.858 99.6009 203.639 99.5569C203.428 99.515 203.219 99.4599 203.015 99.3919C202.849 99.3404 202.69 99.2668 202.544 99.1729Z" fill="#E66189"/>
<path d="M214.587 93.0529L211.603 100.58C211.07 101.923 210.322 102.594 209.36 102.594C209.131 102.599 208.903 102.571 208.682 102.511V101.58C208.879 101.651 209.087 101.69 209.297 101.694C209.568 101.683 209.828 101.586 210.04 101.418C210.251 101.249 210.404 101.017 210.475 100.756L210.995 99.5269L208.461 93.0519H209.614L211.369 98.0439C211.39 98.1106 211.434 98.2752 211.502 98.5379H211.54C211.561 98.4366 211.604 98.2762 211.667 98.0569L213.511 93.0519L214.587 93.0529Z" fill="#E66189"/>
<path d="M215.309 99.306V98.194C215.846 98.6022 216.503 98.8225 217.178 98.821C218.09 98.821 218.546 98.517 218.546 97.909C218.551 97.7536 218.51 97.6002 218.428 97.468C218.344 97.3417 218.236 97.233 218.111 97.148C217.964 97.0475 217.807 96.9633 217.642 96.897C217.463 96.823 217.269 96.746 217.062 96.666C216.804 96.565 216.551 96.4498 216.305 96.321C216.105 96.2174 215.921 96.0849 215.76 95.928C215.617 95.7859 215.505 95.6156 215.431 95.428C215.353 95.2193 215.315 94.9977 215.32 94.775C215.314 94.4916 215.386 94.212 215.529 93.967C215.668 93.7316 215.859 93.5304 216.086 93.378C216.328 93.2145 216.597 93.0935 216.88 93.02C217.181 92.9392 217.491 92.8985 217.802 92.899C218.319 92.8902 218.833 92.9893 219.31 93.19V94.242C218.82 93.9256 218.246 93.7623 217.663 93.773C217.485 93.7711 217.308 93.7937 217.137 93.84C216.994 93.8788 216.859 93.942 216.737 94.027C216.63 94.102 216.541 94.2005 216.477 94.315C216.415 94.4288 216.384 94.5565 216.385 94.686C216.38 94.8327 216.412 94.9784 216.477 95.11C216.544 95.2287 216.636 95.3312 216.747 95.41C216.88 95.5078 217.025 95.5887 217.178 95.651C217.347 95.723 217.539 95.801 217.754 95.885C218.017 95.9842 218.276 96.0973 218.527 96.224C218.738 96.3284 218.934 96.4605 219.11 96.617C219.266 96.7563 219.392 96.9266 219.48 97.117C219.578 97.3599 219.622 97.6214 219.608 97.8831C219.594 98.1448 219.522 98.4001 219.398 98.631C219.256 98.8677 219.062 99.0691 218.831 99.22C218.581 99.382 218.304 99.4997 218.014 99.568C217.696 99.645 217.371 99.6832 217.044 99.682C216.444 99.6998 215.848 99.5707 215.309 99.306V99.306Z" fill="#E66189"/>
<path d="M224.214 99.478C223.913 99.6247 223.58 99.6935 223.245 99.6779C222.112 99.6779 221.545 99.0446 221.545 97.778V93.939H220.43V93.0519H221.545V91.468L222.584 91.132V93.0519H224.214V93.939H222.58V97.594C222.551 97.9203 222.629 98.2473 222.801 98.5259C222.894 98.6257 223.009 98.7027 223.136 98.7509C223.263 98.7991 223.4 98.8173 223.536 98.804C223.78 98.8101 224.018 98.7344 224.214 98.589V99.478Z" fill="#E66189"/>
<path d="M230.717 96.5559H226.137C226.113 97.1671 226.321 97.7648 226.72 98.2289C226.92 98.4296 227.159 98.5859 227.424 98.6874C227.688 98.7889 227.97 98.8334 228.253 98.8179C228.988 98.8166 229.7 98.5616 230.268 98.0959V99.0719C229.599 99.5144 228.807 99.732 228.006 99.6929C227.603 99.7137 227.201 99.6452 226.827 99.4924C226.454 99.3395 226.119 99.1062 225.846 98.8089C225.284 98.1068 225.004 97.2204 225.06 96.3229C225.022 95.4209 225.329 94.5382 225.919 93.8549C226.183 93.5495 226.511 93.3058 226.879 93.1411C227.247 92.9764 227.648 92.8948 228.051 92.9019C228.42 92.8809 228.79 92.9442 229.131 93.0869C229.472 93.2297 229.777 93.4482 230.021 93.7259C230.521 94.3798 230.769 95.1913 230.721 96.0129L230.717 96.5559ZM229.653 95.6759C229.68 95.1724 229.526 94.6758 229.219 94.2759C229.071 94.1083 228.888 93.9763 228.682 93.8898C228.477 93.8032 228.254 93.7642 228.031 93.7759C227.798 93.772 227.567 93.8166 227.352 93.907C227.137 93.9974 226.943 94.1315 226.783 94.3009C226.428 94.6785 226.206 95.161 226.15 95.6759H229.653Z" fill="#E66189"/>
<path d="M241.5 99.5399H240.461V95.8149C240.503 95.2743 240.387 94.7332 240.128 94.2569C239.997 94.0887 239.827 93.9563 239.631 93.872C239.436 93.7878 239.222 93.7543 239.01 93.7749C238.786 93.7774 238.567 93.834 238.37 93.9399C238.173 94.0458 238.004 94.1978 237.879 94.3829C237.564 94.8023 237.4 95.3157 237.414 95.8399V99.5399H236.375V95.6879C236.375 94.4126 235.883 93.7749 234.899 93.7749C234.679 93.7725 234.461 93.8234 234.265 93.9231C234.068 94.0229 233.899 94.1686 233.771 94.3479C233.459 94.781 233.303 95.3068 233.327 95.8399V99.5399H232.291V93.0529H233.33V94.0789H233.355C233.546 93.7134 233.837 93.4092 234.193 93.2009C234.549 92.9926 234.957 92.8886 235.369 92.9009C235.78 92.8918 236.183 93.0185 236.515 93.2612C236.847 93.504 237.09 93.8493 237.206 94.2439C237.395 93.8346 237.7 93.4894 238.083 93.2508C238.465 93.0123 238.909 92.8906 239.36 92.9009C240.787 92.9009 241.501 93.7812 241.502 95.5419L241.5 99.5399Z" fill="#E66189"/>
<path d="M150.42 99.541H149.153L147.632 96.994C147.51 96.7837 147.375 96.5816 147.227 96.389C147.111 96.237 146.977 96.1 146.827 95.981C146.694 95.8775 146.544 95.7992 146.383 95.75C146.209 95.6991 146.029 95.6745 145.848 95.677H144.974V99.542H143.91V90.456H146.62C146.992 90.4523 147.362 90.5025 147.72 90.605C148.039 90.6956 148.336 90.8497 148.594 91.058C148.842 91.263 149.041 91.5219 149.174 91.815C149.32 92.1494 149.391 92.5114 149.383 92.876C149.386 93.1723 149.338 93.4671 149.241 93.747C149.15 94.0047 149.012 94.2439 148.836 94.453C148.656 94.6639 148.442 94.8427 148.203 94.982C147.942 95.1333 147.662 95.2474 147.37 95.321V95.346C147.512 95.4066 147.646 95.4842 147.77 95.577C147.887 95.6685 147.995 95.7717 148.091 95.885C148.199 96.0121 148.299 96.1457 148.391 96.285C148.49 96.435 148.601 96.609 148.724 96.807L150.42 99.541ZM144.971 91.419V94.713H146.42C146.671 94.7156 146.921 94.675 147.158 94.593C147.375 94.5183 147.574 94.4006 147.744 94.247C147.912 94.0938 148.044 93.9057 148.131 93.696C148.227 93.464 148.274 93.2149 148.27 92.964C148.281 92.7511 148.245 92.5384 148.163 92.3414C148.081 92.1445 147.957 91.9684 147.798 91.826C147.407 91.5296 146.922 91.3847 146.433 91.418L144.971 91.419Z" fill="#E66189"/>
<path d="M156.385 96.5559H151.805C151.781 97.1671 151.989 97.7648 152.388 98.2289C152.588 98.4296 152.827 98.5859 153.091 98.6874C153.356 98.7889 153.638 98.8334 153.921 98.8179C154.655 98.8164 155.367 98.5614 155.935 98.0959V99.0719C155.266 99.5144 154.474 99.732 153.673 99.6929C153.27 99.7137 152.868 99.6452 152.494 99.4924C152.121 99.3395 151.786 99.1062 151.513 98.8089C150.951 98.1068 150.671 97.2204 150.727 96.3229C150.689 95.4209 150.996 94.5382 151.586 93.8549C151.85 93.5495 152.177 93.3058 152.546 93.1411C152.914 92.9764 153.314 92.8948 153.718 92.9019C154.087 92.8809 154.457 92.9442 154.798 93.0869C155.139 93.2297 155.444 93.4482 155.688 93.7259C156.188 94.3798 156.436 95.1913 156.388 96.0129L156.385 96.5559ZM155.321 95.6759C155.348 95.1724 155.194 94.6758 154.887 94.2759C154.739 94.1083 154.556 93.9763 154.35 93.8898C154.145 93.8032 153.922 93.7642 153.699 93.7759C153.466 93.772 153.235 93.8166 153.02 93.907C152.805 93.9974 152.611 94.1315 152.451 94.3009C152.096 94.6784 151.874 95.1609 151.817 95.6759H155.321Z" fill="#E66189"/>
<path d="M161.163 90.8489C160.952 90.7323 160.714 90.673 160.473 90.6769C159.746 90.6769 159.383 91.1353 159.383 92.0519V93.0519H160.903V93.9389H159.383V99.5389H158.35V93.9389H157.241V93.0519H158.35V91.9999C158.334 91.7054 158.379 91.4108 158.48 91.1337C158.581 90.8567 158.737 90.603 158.939 90.3879C159.13 90.1936 159.359 90.0407 159.612 89.9387C159.865 89.8367 160.136 89.7878 160.409 89.7949C160.665 89.7852 160.921 89.8238 161.163 89.9089V90.8489Z" fill="#E66189"/>
<path d="M167.231 96.5559H162.651C162.627 97.1672 162.836 97.7647 163.234 98.2289C163.434 98.4296 163.673 98.5859 163.938 98.6874C164.202 98.7889 164.484 98.8334 164.767 98.8179C165.502 98.8167 166.214 98.5616 166.782 98.0959V99.0719C166.113 99.5144 165.321 99.732 164.52 99.6929C164.117 99.7136 163.715 99.6451 163.341 99.4923C162.968 99.3395 162.633 99.1062 162.36 98.8089C161.798 98.1068 161.518 97.2205 161.574 96.3229C161.536 95.4209 161.843 94.5383 162.433 93.8549C162.697 93.5496 163.024 93.306 163.392 93.1413C163.761 92.9766 164.161 92.8949 164.564 92.9019C164.934 92.8808 165.303 92.944 165.644 93.0868C165.986 93.2295 166.29 93.4481 166.535 93.7259C167.035 94.3798 167.283 95.1914 167.235 96.0129L167.231 96.5559ZM166.167 95.6759C166.194 95.1725 166.04 94.6759 165.733 94.2759C165.585 94.1084 165.402 93.9764 165.196 93.8898C164.991 93.8032 164.768 93.7643 164.545 93.7759C164.312 93.772 164.081 93.8167 163.866 93.9071C163.651 93.9974 163.457 94.1316 163.297 94.3009C162.942 94.6784 162.72 95.161 162.663 95.6759H166.167Z" fill="#E66189"/>
<path d="M172.186 94.105C171.954 93.9508 171.678 93.877 171.4 93.895C171.177 93.8977 170.958 93.9566 170.763 94.0664C170.569 94.1762 170.406 94.3332 170.288 94.523C169.965 95.0327 169.809 95.6305 169.842 96.233V99.54H168.803V93.053H169.842V94.39H169.867C169.987 93.9769 170.222 93.6065 170.544 93.322C170.826 93.0748 171.189 92.9387 171.564 92.939C171.775 92.9299 171.985 92.9601 172.185 93.028L172.186 94.105Z" fill="#E66189"/>
<path d="M185.394 99.54H184.355V95.84C184.355 94.4633 183.852 93.775 182.847 93.775C182.602 93.77 182.359 93.82 182.136 93.9214C181.913 94.0228 181.715 94.1731 181.558 94.361C181.21 94.7736 181.029 95.3008 181.048 95.84V99.54H180.009V93.053H181.048V94.13H181.073C181.279 93.7479 181.587 93.4306 181.963 93.2135C182.339 92.9965 182.768 92.8883 183.202 92.901C183.508 92.8821 183.814 92.9344 184.097 93.0536C184.379 93.1727 184.63 93.3556 184.83 93.588C185.242 94.165 185.441 94.8668 185.393 95.574L185.394 99.54Z" fill="#E66189"/>
<path d="M191.773 99.242C191.234 99.5525 190.62 99.7083 189.999 99.692C189.583 99.709 189.169 99.6376 188.782 99.4825C188.396 99.3273 188.047 99.092 187.759 98.792C187.178 98.1543 186.872 97.3131 186.907 96.451C186.863 95.5053 187.192 94.5802 187.825 93.876C188.142 93.5497 188.524 93.2943 188.947 93.1267C189.369 92.9592 189.823 92.8833 190.277 92.904C190.797 92.8933 191.313 93.0017 191.785 93.221V94.286C191.336 93.9585 190.795 93.7811 190.239 93.779C189.931 93.7704 189.626 93.8299 189.344 93.9531C189.062 94.0764 188.811 94.2604 188.608 94.492C188.167 95.0134 187.94 95.6821 187.972 96.364C187.936 97.0184 188.15 97.6621 188.572 98.1639C188.776 98.3838 189.025 98.5566 189.302 98.6704C189.58 98.7842 189.879 98.8363 190.178 98.8229C190.759 98.8191 191.323 98.6206 191.778 98.2589L191.773 99.242Z" fill="#E66189"/>
<path d="M198.558 96.5559H193.978C193.954 97.1671 194.163 97.7647 194.561 98.2289C194.761 98.4296 195 98.5859 195.264 98.6874C195.529 98.7889 195.811 98.8334 196.094 98.8179C196.829 98.8166 197.541 98.5616 198.109 98.0959V99.0719C197.439 99.5157 196.645 99.7337 195.842 99.6939C195.439 99.7146 195.037 99.6461 194.663 99.4933C194.29 99.3405 193.955 99.1071 193.682 98.8099C193.12 98.1076 192.841 97.2213 192.897 96.3239C192.859 95.422 193.165 94.5394 193.755 93.8559C194.019 93.5505 194.346 93.3068 194.715 93.1421C195.083 92.9774 195.483 92.8958 195.887 92.9029C196.256 92.8818 196.626 92.9451 196.967 93.0878C197.308 93.2306 197.613 93.4491 197.857 93.7269C198.357 94.3807 198.605 95.1923 198.557 96.0139L198.558 96.5559ZM197.493 95.6759C197.52 95.1724 197.366 94.6758 197.059 94.2759C196.911 94.1083 196.728 93.9763 196.522 93.8898C196.317 93.8032 196.094 93.7642 195.871 93.7759C195.638 93.772 195.407 93.8167 195.192 93.9071C194.977 93.9975 194.783 94.1316 194.623 94.3009C194.269 94.6785 194.046 95.1611 193.99 95.6759H197.493Z" fill="#E66189"/>
<path d="M178.614 96.5559H174.034C174.01 97.1671 174.218 97.7648 174.617 98.2289C174.817 98.4296 175.056 98.5859 175.32 98.6874C175.585 98.7889 175.867 98.8334 176.15 98.8179C176.885 98.8166 177.597 98.5616 178.165 98.0959V99.0719C177.496 99.5144 176.704 99.732 175.903 99.6929C175.5 99.7136 175.098 99.6451 174.724 99.4923C174.351 99.3395 174.016 99.1061 173.743 98.8089C173.181 98.1068 172.901 97.2204 172.957 96.3229C172.918 95.421 173.225 94.5383 173.815 93.8549C174.079 93.5495 174.407 93.3058 174.775 93.1411C175.143 92.9764 175.544 92.8948 175.947 92.9019C176.316 92.8809 176.686 92.9442 177.027 93.0869C177.368 93.2297 177.673 93.4482 177.917 93.7259C178.417 94.3798 178.665 95.1913 178.617 96.0129L178.614 96.5559ZM177.55 95.6759C177.577 95.1724 177.423 94.6758 177.116 94.2759C176.969 94.1083 176.785 93.9763 176.579 93.8898C176.374 93.8032 176.151 93.7642 175.928 93.7759C175.695 93.772 175.464 93.8166 175.249 93.907C175.034 93.9974 174.84 94.1315 174.68 94.3009C174.326 94.6785 174.103 95.1611 174.047 95.6759H177.55Z" fill="#E66189"/>
<path d="M84.379 99.5399H83.34V89.9399H84.379V99.5399Z" fill="#E66189"/>
</svg>
