<svg xmlns="http://www.w3.org/2000/svg" width="31.263" height="31.264" viewBox="0 0 31.263 31.264">
  <g id="translate" transform="translate(-0.002)">
    <path id="Path_14562" data-name="Path 14562" d="M28.518,7.388H15.087L12.839.627A.916.916,0,0,0,11.97,0H2.75A2.751,2.751,0,0,0,0,2.748V21.127A2.751,2.751,0,0,0,2.75,23.875H12.843l2.229,6.743a.92.92,0,0,0,.875.645h12.57a2.751,2.751,0,0,0,2.748-2.748V10.136a2.751,2.751,0,0,0-2.748-2.748ZM2.75,22.043a.917.917,0,0,1-.916-.916V2.748a.917.917,0,0,1,.916-.916h8.56l6.718,20.211Zm15.127,1.832-1.8,3.959-1.309-3.959Zm11.557,4.641a.917.917,0,0,1-.916.916H17.368l2.763-6.094a.922.922,0,0,0,.035-.668L15.7,9.22H28.518a.917.917,0,0,1,.916.916Z" transform="translate(0)" fill="#fff"/>
    <path id="Path_14563" data-name="Path 14563" d="M69.245,124.664H66.5a.916.916,0,0,0,0,1.832h1.674a2.747,2.747,0,1,1-.647-2.859.916.916,0,1,0,1.3-1.3,4.58,4.58,0,1,0,1.341,3.238A.916.916,0,0,0,69.245,124.664Z" transform="translate(-57.275 -113.612)" fill="#fff"/>
    <path id="Path_14564" data-name="Path 14564" d="M309.245,212.832H306.5v-.916a.916.916,0,1,0-1.832,0v.916h-2.748a.916.916,0,0,0,0,1.832h5.321a11.514,11.514,0,0,1-1.645,2.88c-.157-.212-.312-.428-.461-.648a.916.916,0,1,0-1.515,1.03c.257.378.526.746.795,1.094-.458.531-.909,1.012-1.3,1.4a.916.916,0,0,0,1.283,1.308c.032-.031.531-.523,1.2-1.278.651.745,1.138,1.234,1.176,1.272a.916.916,0,0,0,1.3-1.3c-.01-.01-.57-.574-1.286-1.408a11.915,11.915,0,0,0,2.361-4.356h.109a.916.916,0,0,0,0-1.832Z" transform="translate(-282.621 -198.116)" fill="#fff"/>
  </g>
</svg>
